<svg width="18" height="18" viewBox="0 0 18 18" fill="none" xmlns="http://www.w3.org/2000/svg">
<path d="M11.0974 13.7402L2.55286 11.4056M6.59953 5.80839C5.15623 7.98027 3.42332 8.58135 1.33278 8.97245C1.26343 8.98513 1.19857 9.0157 1.14461 9.06114C1.09065 9.10658 1.04944 9.16533 1.02505 9.23159C1.00066 9.29785 0.993929 9.36933 1.00552 9.43899C1.01712 9.50864 1.04663 9.57407 1.09116 9.62882L6.94755 16.7479C7.0665 16.8745 7.2233 16.9589 7.39431 16.9884C7.56532 17.0179 7.74126 16.9909 7.89561 16.9114C9.58772 15.7502 12.1999 12.8546 12.1999 11.4184M14.1008 1.49828C14.2585 1.3403 14.4457 1.21499 14.6518 1.1295C14.8578 1.044 15.0787 1 15.3017 1C15.5247 1 15.7456 1.044 15.9516 1.1295C16.1577 1.21499 16.3449 1.3403 16.5026 1.49828C16.6603 1.65625 16.7854 1.84379 16.8707 2.0502C16.9561 2.2566 17 2.47782 17 2.70123C17 2.92464 16.9561 3.14586 16.8707 3.35226C16.7854 3.55867 16.6603 3.74621 16.5026 3.90418L13.288 7.12514C13.213 7.20029 13.1708 7.30219 13.1708 7.40845C13.1708 7.5147 13.213 7.61661 13.288 7.69176L14.0432 8.44831C14.4047 8.81052 14.6079 9.30175 14.6079 9.81395C14.6079 10.3262 14.4047 10.8174 14.0432 11.1796L13.288 11.9361C13.213 12.0113 13.1112 12.0535 13.0051 12.0535C12.8991 12.0535 12.7973 12.0113 12.7223 11.9361L6.08269 5.28585C6.0077 5.21071 5.96557 5.1088 5.96557 5.00255C5.96557 4.89629 6.0077 4.79438 6.08269 4.71924L6.83794 3.96269C7.19953 3.60053 7.68991 3.39708 8.20123 3.39708C8.71255 3.39708 9.20294 3.60053 9.56452 3.96269L10.3198 4.71924C10.3948 4.79436 10.4965 4.83656 10.6026 4.83656C10.7087 4.83656 10.8104 4.79436 10.8854 4.71924L14.1008 1.49828Z" stroke="#ECECEC" stroke-width="2" stroke-linecap="round" stroke-linejoin="round"/>
</svg>
