<svg width="18" height="18" viewBox="0 0 18 18" fill="none" xmlns="http://www.w3.org/2000/svg">
<path d="M9 15.4C10.6974 15.4 12.3253 14.7257 13.5255 13.5255C14.7257 12.3253 15.4 10.6974 15.4 9C15.4 7.30261 14.7257 5.67475 13.5255 4.47452C12.3253 3.27428 10.6974 2.6 9 2.6M9 15.4C7.30261 15.4 5.67475 14.7257 4.47452 13.5255C3.27428 12.3253 2.6 10.6974 2.6 9M9 15.4V17M9 2.6C7.30261 2.6 5.67475 3.27428 4.47452 4.47452C3.27428 5.67475 2.6 7.30261 2.6 9M9 2.6V1M2.6 9H1M10.6 9C10.6 9.42435 10.4314 9.83131 10.1314 10.1314C9.83131 10.4314 9.42435 10.6 9 10.6C8.57565 10.6 8.16869 10.4314 7.86863 10.1314C7.56857 9.83131 7.4 9.42435 7.4 9C7.4 8.57565 7.56857 8.16869 7.86863 7.86863C8.16869 7.56857 8.57565 7.4 9 7.4C9.42435 7.4 9.83131 7.56857 10.1314 7.86863C10.4314 8.16869 10.6 8.57565 10.6 9ZM10.6 9H17M13 15.928L12.2 14.544M8.2 7.616L5 2.072M15.928 13L14.544 12.2M2.072 5L3.456 5.8M15.928 5L14.544 5.8M2.072 13L3.456 12.2M13 2.072L12.2 3.456M8.2 10.384L5 15.928" stroke="#ECECEC" stroke-width="2" stroke-linecap="round" stroke-linejoin="round"/>
</svg>
